<svg width="1280" height="1280" viewBox="0 0 1280 1280" fill="none" xmlns="http://www.w3.org/2000/svg">
<g clip-path="url(#clip0_60_292)">
<path d="M640 640L0 1009.5V554.256L640 640Z" fill="#2784C7"/>
<path d="M640 640L0 1280V811.488L640 640Z" fill="#1D61AC"/>
<path d="M640 640L270.496 1280H0V1009.5L640 640Z" fill="#193E8F"/>
<path d="M640 640L0 1280H468.512L640 640Z" fill="#3E287B"/>
<path d="M640 640L270.496 1280H640V640Z" fill="#5C2578"/>
<path d="M640 640L468.512 1280H811.488L640 640Z" fill="#89207F"/>
<path d="M640 640L1009.5 1280H640V640Z" fill="#BC107E"/>
<path d="M640 640L1280 1280H811.488L640 640Z" fill="#DA0581"/>
<path d="M640 640L1280 1009.5V1280H1009.5L640 640Z" fill="#E7167B"/>
<path d="M640 640L1280 1280V811.488L640 640Z" fill="#E0186E"/>
<path d="M640 640L1280 1009.5V640L640 640Z" fill="#DF0655"/>
<path d="M640 640L1280 811.488V468.512L640 640Z" fill="#DD0834"/>
<path d="M640 640L1280 270.496V640L640 640Z" fill="#E7302A"/>
<path d="M640 640L1280 6.10352e-05V468.512L640 640Z" fill="#E6471D"/>
<path d="M640 640L1009.5 6.10352e-05H1280V270.496L640 640Z" fill="#F07915"/>
<path d="M640 640L1280 6.10352e-05H811.488L640 640Z" fill="#F7A416"/>
<path d="M640 640L1009.5 6.10352e-05L640 0V640Z" fill="#FBD713"/>
<path d="M640 640L811.488 6.10352e-05L468.512 0L640 640Z" fill="#EEE61F"/>
<path d="M640 640L270.496 0H640V640Z" fill="#B0CC20"/>
<path d="M640 640L0 0H468.512L640 640Z" fill="#62B237"/>
<path d="M640 640L0 270.496V0H270.496L640 640Z" fill="#1A9D3F"/>
<path d="M640 640L0 0V468.512L640 640Z" fill="#1E996A"/>
<path d="M640 640L0 270.496V554.256L640 640Z" fill="#1FA29D"/>
<path d="M640 640L0 468.512V640H640Z" fill="#159DD7"/>
</g>
<defs>
<clipPath id="clip0_60_292">
<rect x="1280" width="1280" height="1280" rx="640" transform="rotate(90 1280 0)" fill="white"/>
</clipPath>
</defs>
</svg>
