<svg xmlns="http://www.w3.org/2000/svg" viewBox="0 0 32 32">
  <defs>
    <radialGradient id="lighten" cx="50%" cy="50%" r="50%">
      <stop offset="0%" stop-color="#ffffff" stop-opacity="0.7"/>
      <stop offset="22%" stop-color="#ffffff" stop-opacity="0.42"/>
      <stop offset="45%" stop-color="#ffffff" stop-opacity="0.16"/>
      <stop offset="68%" stop-color="#ffffff" stop-opacity="0.04"/>
      <stop offset="100%" stop-color="#ffffff" stop-opacity="0"/>
    </radialGradient>
  </defs>
  <g stroke="none">
    <path d="M 16 16 L 32.000 16.000 A 16 16 0 0 1 31.990 16.558 Z" fill="#ff0400"/>
    <path d="M 16 16 L 31.990 16.558 A 16 16 0 0 1 31.961 17.116 Z" fill="#ff0d00"/>
    <path d="M 16 16 L 31.961 17.116 A 16 16 0 0 1 31.912 17.672 Z" fill="#ff1500"/>
    <path d="M 16 16 L 31.912 17.672 A 16 16 0 0 1 31.844 18.227 Z" fill="#ff1e00"/>
    <path d="M 16 16 L 31.844 18.227 A 16 16 0 0 1 31.757 18.778 Z" fill="#ff2600"/>
    <path d="M 16 16 L 31.757 18.778 A 16 16 0 0 1 31.650 19.327 Z" fill="#ff2f00"/>
    <path d="M 16 16 L 31.650 19.327 A 16 16 0 0 1 31.525 19.871 Z" fill="#ff3700"/>
    <path d="M 16 16 L 31.525 19.871 A 16 16 0 0 1 31.380 20.410 Z" fill="#ff4000"/>
    <path d="M 16 16 L 31.380 20.410 A 16 16 0 0 1 31.217 20.944 Z" fill="#ff4800"/>
    <path d="M 16 16 L 31.217 20.944 A 16 16 0 0 1 31.035 21.472 Z" fill="#ff5100"/>
    <path d="M 16 16 L 31.035 21.472 A 16 16 0 0 1 30.835 21.994 Z" fill="#ff5900"/>
    <path d="M 16 16 L 30.835 21.994 A 16 16 0 0 1 30.617 22.508 Z" fill="#ff6200"/>
    <path d="M 16 16 L 30.617 22.508 A 16 16 0 0 1 30.381 23.014 Z" fill="#ff6a00"/>
    <path d="M 16 16 L 30.381 23.014 A 16 16 0 0 1 30.127 23.512 Z" fill="#ff7300"/>
    <path d="M 16 16 L 30.127 23.512 A 16 16 0 0 1 29.856 24.000 Z" fill="#ff7b00"/>
    <path d="M 16 16 L 29.856 24.000 A 16 16 0 0 1 29.569 24.479 Z" fill="#ff8400"/>
    <path d="M 16 16 L 29.569 24.479 A 16 16 0 0 1 29.265 24.947 Z" fill="#ff8c00"/>
    <path d="M 16 16 L 29.265 24.947 A 16 16 0 0 1 28.944 25.405 Z" fill="#ff9500"/>
    <path d="M 16 16 L 28.944 25.405 A 16 16 0 0 1 28.608 25.851 Z" fill="#ff9d00"/>
    <path d="M 16 16 L 28.608 25.851 A 16 16 0 0 1 28.257 26.285 Z" fill="#ffa600"/>
    <path d="M 16 16 L 28.257 26.285 A 16 16 0 0 1 27.890 26.706 Z" fill="#ffae00"/>
    <path d="M 16 16 L 27.890 26.706 A 16 16 0 0 1 27.509 27.115 Z" fill="#ffb700"/>
    <path d="M 16 16 L 27.509 27.115 A 16 16 0 0 1 27.115 27.509 Z" fill="#ffbf00"/>
    <path d="M 16 16 L 27.115 27.509 A 16 16 0 0 1 26.706 27.890 Z" fill="#ffc800"/>
    <path d="M 16 16 L 26.706 27.890 A 16 16 0 0 1 26.285 28.257 Z" fill="#ffd000"/>
    <path d="M 16 16 L 26.285 28.257 A 16 16 0 0 1 25.851 28.608 Z" fill="#ffd900"/>
    <path d="M 16 16 L 25.851 28.608 A 16 16 0 0 1 25.405 28.944 Z" fill="#ffe100"/>
    <path d="M 16 16 L 25.405 28.944 A 16 16 0 0 1 24.947 29.265 Z" fill="#ffea00"/>
    <path d="M 16 16 L 24.947 29.265 A 16 16 0 0 1 24.479 29.569 Z" fill="#fff200"/>
    <path d="M 16 16 L 24.479 29.569 A 16 16 0 0 1 24.000 29.856 Z" fill="#fffb00"/>
    <path d="M 16 16 L 24.000 29.856 A 16 16 0 0 1 23.512 30.127 Z" fill="#fbff00"/>
    <path d="M 16 16 L 23.512 30.127 A 16 16 0 0 1 23.014 30.381 Z" fill="#f2ff00"/>
    <path d="M 16 16 L 23.014 30.381 A 16 16 0 0 1 22.508 30.617 Z" fill="#eaff00"/>
    <path d="M 16 16 L 22.508 30.617 A 16 16 0 0 1 21.994 30.835 Z" fill="#e1ff00"/>
    <path d="M 16 16 L 21.994 30.835 A 16 16 0 0 1 21.472 31.035 Z" fill="#d9ff00"/>
    <path d="M 16 16 L 21.472 31.035 A 16 16 0 0 1 20.944 31.217 Z" fill="#d0ff00"/>
    <path d="M 16 16 L 20.944 31.217 A 16 16 0 0 1 20.410 31.380 Z" fill="#c8ff00"/>
    <path d="M 16 16 L 20.410 31.380 A 16 16 0 0 1 19.871 31.525 Z" fill="#bfff00"/>
    <path d="M 16 16 L 19.871 31.525 A 16 16 0 0 1 19.327 31.650 Z" fill="#b7ff00"/>
    <path d="M 16 16 L 19.327 31.650 A 16 16 0 0 1 18.778 31.757 Z" fill="#aeff00"/>
    <path d="M 16 16 L 18.778 31.757 A 16 16 0 0 1 18.227 31.844 Z" fill="#a6ff00"/>
    <path d="M 16 16 L 18.227 31.844 A 16 16 0 0 1 17.672 31.912 Z" fill="#9dff00"/>
    <path d="M 16 16 L 17.672 31.912 A 16 16 0 0 1 17.116 31.961 Z" fill="#95ff00"/>
    <path d="M 16 16 L 17.116 31.961 A 16 16 0 0 1 16.558 31.990 Z" fill="#8cff00"/>
    <path d="M 16 16 L 16.558 31.990 A 16 16 0 0 1 16.000 32.000 Z" fill="#84ff00"/>
    <path d="M 16 16 L 16.000 32.000 A 16 16 0 0 1 15.442 31.990 Z" fill="#7bff00"/>
    <path d="M 16 16 L 15.442 31.990 A 16 16 0 0 1 14.884 31.961 Z" fill="#73ff00"/>
    <path d="M 16 16 L 14.884 31.961 A 16 16 0 0 1 14.328 31.912 Z" fill="#6aff00"/>
    <path d="M 16 16 L 14.328 31.912 A 16 16 0 0 1 13.773 31.844 Z" fill="#62ff00"/>
    <path d="M 16 16 L 13.773 31.844 A 16 16 0 0 1 13.222 31.757 Z" fill="#59ff00"/>
    <path d="M 16 16 L 13.222 31.757 A 16 16 0 0 1 12.673 31.650 Z" fill="#51ff00"/>
    <path d="M 16 16 L 12.673 31.650 A 16 16 0 0 1 12.129 31.525 Z" fill="#48ff00"/>
    <path d="M 16 16 L 12.129 31.525 A 16 16 0 0 1 11.590 31.380 Z" fill="#40ff00"/>
    <path d="M 16 16 L 11.590 31.380 A 16 16 0 0 1 11.056 31.217 Z" fill="#37ff00"/>
    <path d="M 16 16 L 11.056 31.217 A 16 16 0 0 1 10.528 31.035 Z" fill="#2fff00"/>
    <path d="M 16 16 L 10.528 31.035 A 16 16 0 0 1 10.006 30.835 Z" fill="#26ff00"/>
    <path d="M 16 16 L 10.006 30.835 A 16 16 0 0 1 9.492 30.617 Z" fill="#1eff00"/>
    <path d="M 16 16 L 9.492 30.617 A 16 16 0 0 1 8.986 30.381 Z" fill="#15ff00"/>
    <path d="M 16 16 L 8.986 30.381 A 16 16 0 0 1 8.488 30.127 Z" fill="#0dff00"/>
    <path d="M 16 16 L 8.488 30.127 A 16 16 0 0 1 8.000 29.856 Z" fill="#04ff00"/>
    <path d="M 16 16 L 8.000 29.856 A 16 16 0 0 1 7.521 29.569 Z" fill="#00ff04"/>
    <path d="M 16 16 L 7.521 29.569 A 16 16 0 0 1 7.053 29.265 Z" fill="#00ff0d"/>
    <path d="M 16 16 L 7.053 29.265 A 16 16 0 0 1 6.595 28.944 Z" fill="#00ff15"/>
    <path d="M 16 16 L 6.595 28.944 A 16 16 0 0 1 6.149 28.608 Z" fill="#00ff1e"/>
    <path d="M 16 16 L 6.149 28.608 A 16 16 0 0 1 5.715 28.257 Z" fill="#00ff26"/>
    <path d="M 16 16 L 5.715 28.257 A 16 16 0 0 1 5.294 27.890 Z" fill="#00ff2f"/>
    <path d="M 16 16 L 5.294 27.890 A 16 16 0 0 1 4.885 27.509 Z" fill="#00ff37"/>
    <path d="M 16 16 L 4.885 27.509 A 16 16 0 0 1 4.491 27.115 Z" fill="#00ff40"/>
    <path d="M 16 16 L 4.491 27.115 A 16 16 0 0 1 4.110 26.706 Z" fill="#00ff48"/>
    <path d="M 16 16 L 4.110 26.706 A 16 16 0 0 1 3.743 26.285 Z" fill="#00ff51"/>
    <path d="M 16 16 L 3.743 26.285 A 16 16 0 0 1 3.392 25.851 Z" fill="#00ff59"/>
    <path d="M 16 16 L 3.392 25.851 A 16 16 0 0 1 3.056 25.405 Z" fill="#00ff62"/>
    <path d="M 16 16 L 3.056 25.405 A 16 16 0 0 1 2.735 24.947 Z" fill="#00ff6a"/>
    <path d="M 16 16 L 2.735 24.947 A 16 16 0 0 1 2.431 24.479 Z" fill="#00ff73"/>
    <path d="M 16 16 L 2.431 24.479 A 16 16 0 0 1 2.144 24.000 Z" fill="#00ff7b"/>
    <path d="M 16 16 L 2.144 24.000 A 16 16 0 0 1 1.873 23.512 Z" fill="#00ff84"/>
    <path d="M 16 16 L 1.873 23.512 A 16 16 0 0 1 1.619 23.014 Z" fill="#00ff8c"/>
    <path d="M 16 16 L 1.619 23.014 A 16 16 0 0 1 1.383 22.508 Z" fill="#00ff95"/>
    <path d="M 16 16 L 1.383 22.508 A 16 16 0 0 1 1.165 21.994 Z" fill="#00ff9d"/>
    <path d="M 16 16 L 1.165 21.994 A 16 16 0 0 1 0.965 21.472 Z" fill="#00ffa6"/>
    <path d="M 16 16 L 0.965 21.472 A 16 16 0 0 1 0.783 20.944 Z" fill="#00ffae"/>
    <path d="M 16 16 L 0.783 20.944 A 16 16 0 0 1 0.620 20.410 Z" fill="#00ffb7"/>
    <path d="M 16 16 L 0.620 20.410 A 16 16 0 0 1 0.475 19.871 Z" fill="#00ffbf"/>
    <path d="M 16 16 L 0.475 19.871 A 16 16 0 0 1 0.350 19.327 Z" fill="#00ffc8"/>
    <path d="M 16 16 L 0.350 19.327 A 16 16 0 0 1 0.243 18.778 Z" fill="#00ffd0"/>
    <path d="M 16 16 L 0.243 18.778 A 16 16 0 0 1 0.156 18.227 Z" fill="#00ffd9"/>
    <path d="M 16 16 L 0.156 18.227 A 16 16 0 0 1 0.088 17.672 Z" fill="#00ffe1"/>
    <path d="M 16 16 L 0.088 17.672 A 16 16 0 0 1 0.039 17.116 Z" fill="#00ffea"/>
    <path d="M 16 16 L 0.039 17.116 A 16 16 0 0 1 0.010 16.558 Z" fill="#00fff2"/>
    <path d="M 16 16 L 0.010 16.558 A 16 16 0 0 1 0.000 16.000 Z" fill="#00fffb"/>
    <path d="M 16 16 L 0.000 16.000 A 16 16 0 0 1 0.010 15.442 Z" fill="#00fbff"/>
    <path d="M 16 16 L 0.010 15.442 A 16 16 0 0 1 0.039 14.884 Z" fill="#00f2ff"/>
    <path d="M 16 16 L 0.039 14.884 A 16 16 0 0 1 0.088 14.328 Z" fill="#00eaff"/>
    <path d="M 16 16 L 0.088 14.328 A 16 16 0 0 1 0.156 13.773 Z" fill="#00e1ff"/>
    <path d="M 16 16 L 0.156 13.773 A 16 16 0 0 1 0.243 13.222 Z" fill="#00d9ff"/>
    <path d="M 16 16 L 0.243 13.222 A 16 16 0 0 1 0.350 12.673 Z" fill="#00d0ff"/>
    <path d="M 16 16 L 0.350 12.673 A 16 16 0 0 1 0.475 12.129 Z" fill="#00c8ff"/>
    <path d="M 16 16 L 0.475 12.129 A 16 16 0 0 1 0.620 11.590 Z" fill="#00bfff"/>
    <path d="M 16 16 L 0.620 11.590 A 16 16 0 0 1 0.783 11.056 Z" fill="#00b7ff"/>
    <path d="M 16 16 L 0.783 11.056 A 16 16 0 0 1 0.965 10.528 Z" fill="#00aeff"/>
    <path d="M 16 16 L 0.965 10.528 A 16 16 0 0 1 1.165 10.006 Z" fill="#00a6ff"/>
    <path d="M 16 16 L 1.165 10.006 A 16 16 0 0 1 1.383 9.492 Z" fill="#009dff"/>
    <path d="M 16 16 L 1.383 9.492 A 16 16 0 0 1 1.619 8.986 Z" fill="#0095ff"/>
    <path d="M 16 16 L 1.619 8.986 A 16 16 0 0 1 1.873 8.488 Z" fill="#008cff"/>
    <path d="M 16 16 L 1.873 8.488 A 16 16 0 0 1 2.144 8.000 Z" fill="#0084ff"/>
    <path d="M 16 16 L 2.144 8.000 A 16 16 0 0 1 2.431 7.521 Z" fill="#007bff"/>
    <path d="M 16 16 L 2.431 7.521 A 16 16 0 0 1 2.735 7.053 Z" fill="#0073ff"/>
    <path d="M 16 16 L 2.735 7.053 A 16 16 0 0 1 3.056 6.595 Z" fill="#006aff"/>
    <path d="M 16 16 L 3.056 6.595 A 16 16 0 0 1 3.392 6.149 Z" fill="#0062ff"/>
    <path d="M 16 16 L 3.392 6.149 A 16 16 0 0 1 3.743 5.715 Z" fill="#0059ff"/>
    <path d="M 16 16 L 3.743 5.715 A 16 16 0 0 1 4.110 5.294 Z" fill="#0051ff"/>
    <path d="M 16 16 L 4.110 5.294 A 16 16 0 0 1 4.491 4.885 Z" fill="#0048ff"/>
    <path d="M 16 16 L 4.491 4.885 A 16 16 0 0 1 4.885 4.491 Z" fill="#0040ff"/>
    <path d="M 16 16 L 4.885 4.491 A 16 16 0 0 1 5.294 4.110 Z" fill="#0037ff"/>
    <path d="M 16 16 L 5.294 4.110 A 16 16 0 0 1 5.715 3.743 Z" fill="#002fff"/>
    <path d="M 16 16 L 5.715 3.743 A 16 16 0 0 1 6.149 3.392 Z" fill="#0026ff"/>
    <path d="M 16 16 L 6.149 3.392 A 16 16 0 0 1 6.595 3.056 Z" fill="#001eff"/>
    <path d="M 16 16 L 6.595 3.056 A 16 16 0 0 1 7.053 2.735 Z" fill="#0015ff"/>
    <path d="M 16 16 L 7.053 2.735 A 16 16 0 0 1 7.521 2.431 Z" fill="#000dff"/>
    <path d="M 16 16 L 7.521 2.431 A 16 16 0 0 1 8.000 2.144 Z" fill="#0004ff"/>
    <path d="M 16 16 L 8.000 2.144 A 16 16 0 0 1 8.488 1.873 Z" fill="#0400ff"/>
    <path d="M 16 16 L 8.488 1.873 A 16 16 0 0 1 8.986 1.619 Z" fill="#0d00ff"/>
    <path d="M 16 16 L 8.986 1.619 A 16 16 0 0 1 9.492 1.383 Z" fill="#1500ff"/>
    <path d="M 16 16 L 9.492 1.383 A 16 16 0 0 1 10.006 1.165 Z" fill="#1e00ff"/>
    <path d="M 16 16 L 10.006 1.165 A 16 16 0 0 1 10.528 0.965 Z" fill="#2600ff"/>
    <path d="M 16 16 L 10.528 0.965 A 16 16 0 0 1 11.056 0.783 Z" fill="#2f00ff"/>
    <path d="M 16 16 L 11.056 0.783 A 16 16 0 0 1 11.590 0.620 Z" fill="#3700ff"/>
    <path d="M 16 16 L 11.590 0.620 A 16 16 0 0 1 12.129 0.475 Z" fill="#4000ff"/>
    <path d="M 16 16 L 12.129 0.475 A 16 16 0 0 1 12.673 0.350 Z" fill="#4800ff"/>
    <path d="M 16 16 L 12.673 0.350 A 16 16 0 0 1 13.222 0.243 Z" fill="#5100ff"/>
    <path d="M 16 16 L 13.222 0.243 A 16 16 0 0 1 13.773 0.156 Z" fill="#5900ff"/>
    <path d="M 16 16 L 13.773 0.156 A 16 16 0 0 1 14.328 0.088 Z" fill="#6200ff"/>
    <path d="M 16 16 L 14.328 0.088 A 16 16 0 0 1 14.884 0.039 Z" fill="#6a00ff"/>
    <path d="M 16 16 L 14.884 0.039 A 16 16 0 0 1 15.442 0.010 Z" fill="#7300ff"/>
    <path d="M 16 16 L 15.442 0.010 A 16 16 0 0 1 16.000 0.000 Z" fill="#7b00ff"/>
    <path d="M 16 16 L 16.000 0.000 A 16 16 0 0 1 16.558 0.010 Z" fill="#8400ff"/>
    <path d="M 16 16 L 16.558 0.010 A 16 16 0 0 1 17.116 0.039 Z" fill="#8c00ff"/>
    <path d="M 16 16 L 17.116 0.039 A 16 16 0 0 1 17.672 0.088 Z" fill="#9500ff"/>
    <path d="M 16 16 L 17.672 0.088 A 16 16 0 0 1 18.227 0.156 Z" fill="#9d00ff"/>
    <path d="M 16 16 L 18.227 0.156 A 16 16 0 0 1 18.778 0.243 Z" fill="#a600ff"/>
    <path d="M 16 16 L 18.778 0.243 A 16 16 0 0 1 19.327 0.350 Z" fill="#ae00ff"/>
    <path d="M 16 16 L 19.327 0.350 A 16 16 0 0 1 19.871 0.475 Z" fill="#b700ff"/>
    <path d="M 16 16 L 19.871 0.475 A 16 16 0 0 1 20.410 0.620 Z" fill="#bf00ff"/>
    <path d="M 16 16 L 20.410 0.620 A 16 16 0 0 1 20.944 0.783 Z" fill="#c800ff"/>
    <path d="M 16 16 L 20.944 0.783 A 16 16 0 0 1 21.472 0.965 Z" fill="#d000ff"/>
    <path d="M 16 16 L 21.472 0.965 A 16 16 0 0 1 21.994 1.165 Z" fill="#d900ff"/>
    <path d="M 16 16 L 21.994 1.165 A 16 16 0 0 1 22.508 1.383 Z" fill="#e100ff"/>
    <path d="M 16 16 L 22.508 1.383 A 16 16 0 0 1 23.014 1.619 Z" fill="#ea00ff"/>
    <path d="M 16 16 L 23.014 1.619 A 16 16 0 0 1 23.512 1.873 Z" fill="#f200ff"/>
    <path d="M 16 16 L 23.512 1.873 A 16 16 0 0 1 24.000 2.144 Z" fill="#fb00ff"/>
    <path d="M 16 16 L 24.000 2.144 A 16 16 0 0 1 24.479 2.431 Z" fill="#ff00fb"/>
    <path d="M 16 16 L 24.479 2.431 A 16 16 0 0 1 24.947 2.735 Z" fill="#ff00f2"/>
    <path d="M 16 16 L 24.947 2.735 A 16 16 0 0 1 25.405 3.056 Z" fill="#ff00ea"/>
    <path d="M 16 16 L 25.405 3.056 A 16 16 0 0 1 25.851 3.392 Z" fill="#ff00e1"/>
    <path d="M 16 16 L 25.851 3.392 A 16 16 0 0 1 26.285 3.743 Z" fill="#ff00d9"/>
    <path d="M 16 16 L 26.285 3.743 A 16 16 0 0 1 26.706 4.110 Z" fill="#ff00d0"/>
    <path d="M 16 16 L 26.706 4.110 A 16 16 0 0 1 27.115 4.491 Z" fill="#ff00c8"/>
    <path d="M 16 16 L 27.115 4.491 A 16 16 0 0 1 27.509 4.885 Z" fill="#ff00bf"/>
    <path d="M 16 16 L 27.509 4.885 A 16 16 0 0 1 27.890 5.294 Z" fill="#ff00b7"/>
    <path d="M 16 16 L 27.890 5.294 A 16 16 0 0 1 28.257 5.715 Z" fill="#ff00ae"/>
    <path d="M 16 16 L 28.257 5.715 A 16 16 0 0 1 28.608 6.149 Z" fill="#ff00a6"/>
    <path d="M 16 16 L 28.608 6.149 A 16 16 0 0 1 28.944 6.595 Z" fill="#ff009d"/>
    <path d="M 16 16 L 28.944 6.595 A 16 16 0 0 1 29.265 7.053 Z" fill="#ff0095"/>
    <path d="M 16 16 L 29.265 7.053 A 16 16 0 0 1 29.569 7.521 Z" fill="#ff008c"/>
    <path d="M 16 16 L 29.569 7.521 A 16 16 0 0 1 29.856 8.000 Z" fill="#ff0084"/>
    <path d="M 16 16 L 29.856 8.000 A 16 16 0 0 1 30.127 8.488 Z" fill="#ff007b"/>
    <path d="M 16 16 L 30.127 8.488 A 16 16 0 0 1 30.381 8.986 Z" fill="#ff0073"/>
    <path d="M 16 16 L 30.381 8.986 A 16 16 0 0 1 30.617 9.492 Z" fill="#ff006a"/>
    <path d="M 16 16 L 30.617 9.492 A 16 16 0 0 1 30.835 10.006 Z" fill="#ff0062"/>
    <path d="M 16 16 L 30.835 10.006 A 16 16 0 0 1 31.035 10.528 Z" fill="#ff0059"/>
    <path d="M 16 16 L 31.035 10.528 A 16 16 0 0 1 31.217 11.056 Z" fill="#ff0051"/>
    <path d="M 16 16 L 31.217 11.056 A 16 16 0 0 1 31.380 11.590 Z" fill="#ff0048"/>
    <path d="M 16 16 L 31.380 11.590 A 16 16 0 0 1 31.525 12.129 Z" fill="#ff0040"/>
    <path d="M 16 16 L 31.525 12.129 A 16 16 0 0 1 31.650 12.673 Z" fill="#ff0037"/>
    <path d="M 16 16 L 31.650 12.673 A 16 16 0 0 1 31.757 13.222 Z" fill="#ff002f"/>
    <path d="M 16 16 L 31.757 13.222 A 16 16 0 0 1 31.844 13.773 Z" fill="#ff0026"/>
    <path d="M 16 16 L 31.844 13.773 A 16 16 0 0 1 31.912 14.328 Z" fill="#ff001e"/>
    <path d="M 16 16 L 31.912 14.328 A 16 16 0 0 1 31.961 14.884 Z" fill="#ff0015"/>
    <path d="M 16 16 L 31.961 14.884 A 16 16 0 0 1 31.990 15.442 Z" fill="#ff000d"/>
    <path d="M 16 16 L 31.990 15.442 A 16 16 0 0 1 32.000 16.000 Z" fill="#ff0004"/>
    <circle cx="16" cy="16" r="16" fill="url(#lighten)"/>
  </g>
</svg>
