<svg xmlns="http://www.w3.org/2000/svg" viewBox="0 0 32 32">
  <defs>
    <radialGradient id="center-fade" cx="50%" cy="50%" r="50%">
      <stop offset="0%" stop-color="#ffffff" />
      <stop offset="32%" stop-color="#ffffff" stop-opacity="0.92" />
      <stop offset="58%" stop-color="#ffffff" stop-opacity="0.35" />
      <stop offset="100%" stop-color="#ffffff" stop-opacity="0" />
    </radialGradient>
    <clipPath id="disc">
      <circle cx="16" cy="16" r="15" />
    </clipPath>
  </defs>

  <rect width="32" height="32" fill="#1c1c1c" />

  <g clip-path="url(#disc)">
    <g>
    <path d="M 16 16 L 31.000 16.000 A 15 15 0 0 1 30.943 17.307 Z" fill="#ff0b00" />
    <path d="M 16 16 L 30.943 17.307 A 15 15 0 0 1 30.772 18.605 Z" fill="#ff2000" />
    <path d="M 16 16 L 30.772 18.605 A 15 15 0 0 1 30.489 19.882 Z" fill="#ff3500" />
    <path d="M 16 16 L 30.489 19.882 A 15 15 0 0 1 30.095 21.130 Z" fill="#ff4a00" />
    <path d="M 16 16 L 30.095 21.130 A 15 15 0 0 1 29.595 22.339 Z" fill="#ff6000" />
    <path d="M 16 16 L 29.595 22.339 A 15 15 0 0 1 28.990 23.500 Z" fill="#ff7500" />
    <path d="M 16 16 L 28.990 23.500 A 15 15 0 0 1 28.287 24.604 Z" fill="#ff8a00" />
    <path d="M 16 16 L 28.287 24.604 A 15 15 0 0 1 27.491 25.642 Z" fill="#ff9f00" />
    <path d="M 16 16 L 27.491 25.642 A 15 15 0 0 1 26.607 26.607 Z" fill="#ffb500" />
    <path d="M 16 16 L 26.607 26.607 A 15 15 0 0 1 25.642 27.491 Z" fill="#ffca00" />
    <path d="M 16 16 L 25.642 27.491 A 15 15 0 0 1 24.604 28.287 Z" fill="#ffdf00" />
    <path d="M 16 16 L 24.604 28.287 A 15 15 0 0 1 23.500 28.990 Z" fill="#fff400" />
    <path d="M 16 16 L 23.500 28.990 A 15 15 0 0 1 22.339 29.595 Z" fill="#f4ff00" />
    <path d="M 16 16 L 22.339 29.595 A 15 15 0 0 1 21.130 30.095 Z" fill="#dfff00" />
    <path d="M 16 16 L 21.130 30.095 A 15 15 0 0 1 19.882 30.489 Z" fill="#caff00" />
    <path d="M 16 16 L 19.882 30.489 A 15 15 0 0 1 18.605 30.772 Z" fill="#b5ff00" />
    <path d="M 16 16 L 18.605 30.772 A 15 15 0 0 1 17.307 30.943 Z" fill="#9fff00" />
    <path d="M 16 16 L 17.307 30.943 A 15 15 0 0 1 16.000 31.000 Z" fill="#8aff00" />
    <path d="M 16 16 L 16.000 31.000 A 15 15 0 0 1 14.693 30.943 Z" fill="#75ff00" />
    <path d="M 16 16 L 14.693 30.943 A 15 15 0 0 1 13.395 30.772 Z" fill="#60ff00" />
    <path d="M 16 16 L 13.395 30.772 A 15 15 0 0 1 12.118 30.489 Z" fill="#4aff00" />
    <path d="M 16 16 L 12.118 30.489 A 15 15 0 0 1 10.870 30.095 Z" fill="#35ff00" />
    <path d="M 16 16 L 10.870 30.095 A 15 15 0 0 1 9.661 29.595 Z" fill="#20ff00" />
    <path d="M 16 16 L 9.661 29.595 A 15 15 0 0 1 8.500 28.990 Z" fill="#0bff00" />
    <path d="M 16 16 L 8.500 28.990 A 15 15 0 0 1 7.396 28.287 Z" fill="#00ff0b" />
    <path d="M 16 16 L 7.396 28.287 A 15 15 0 0 1 6.358 27.491 Z" fill="#00ff20" />
    <path d="M 16 16 L 6.358 27.491 A 15 15 0 0 1 5.393 26.607 Z" fill="#00ff35" />
    <path d="M 16 16 L 5.393 26.607 A 15 15 0 0 1 4.509 25.642 Z" fill="#00ff4a" />
    <path d="M 16 16 L 4.509 25.642 A 15 15 0 0 1 3.713 24.604 Z" fill="#00ff60" />
    <path d="M 16 16 L 3.713 24.604 A 15 15 0 0 1 3.010 23.500 Z" fill="#00ff75" />
    <path d="M 16 16 L 3.010 23.500 A 15 15 0 0 1 2.405 22.339 Z" fill="#00ff8a" />
    <path d="M 16 16 L 2.405 22.339 A 15 15 0 0 1 1.905 21.130 Z" fill="#00ff9f" />
    <path d="M 16 16 L 1.905 21.130 A 15 15 0 0 1 1.511 19.882 Z" fill="#00ffb5" />
    <path d="M 16 16 L 1.511 19.882 A 15 15 0 0 1 1.228 18.605 Z" fill="#00ffca" />
    <path d="M 16 16 L 1.228 18.605 A 15 15 0 0 1 1.057 17.307 Z" fill="#00ffdf" />
    <path d="M 16 16 L 1.057 17.307 A 15 15 0 0 1 1.000 16.000 Z" fill="#00fff4" />
    <path d="M 16 16 L 1.000 16.000 A 15 15 0 0 1 1.057 14.693 Z" fill="#00f4ff" />
    <path d="M 16 16 L 1.057 14.693 A 15 15 0 0 1 1.228 13.395 Z" fill="#00dfff" />
    <path d="M 16 16 L 1.228 13.395 A 15 15 0 0 1 1.511 12.118 Z" fill="#00caff" />
    <path d="M 16 16 L 1.511 12.118 A 15 15 0 0 1 1.905 10.870 Z" fill="#00b5ff" />
    <path d="M 16 16 L 1.905 10.870 A 15 15 0 0 1 2.405 9.661 Z" fill="#009fff" />
    <path d="M 16 16 L 2.405 9.661 A 15 15 0 0 1 3.010 8.500 Z" fill="#008aff" />
    <path d="M 16 16 L 3.010 8.500 A 15 15 0 0 1 3.713 7.396 Z" fill="#0075ff" />
    <path d="M 16 16 L 3.713 7.396 A 15 15 0 0 1 4.509 6.358 Z" fill="#0060ff" />
    <path d="M 16 16 L 4.509 6.358 A 15 15 0 0 1 5.393 5.393 Z" fill="#004aff" />
    <path d="M 16 16 L 5.393 5.393 A 15 15 0 0 1 6.358 4.509 Z" fill="#0035ff" />
    <path d="M 16 16 L 6.358 4.509 A 15 15 0 0 1 7.396 3.713 Z" fill="#0020ff" />
    <path d="M 16 16 L 7.396 3.713 A 15 15 0 0 1 8.500 3.010 Z" fill="#000bff" />
    <path d="M 16 16 L 8.500 3.010 A 15 15 0 0 1 9.661 2.405 Z" fill="#0b00ff" />
    <path d="M 16 16 L 9.661 2.405 A 15 15 0 0 1 10.870 1.905 Z" fill="#2000ff" />
    <path d="M 16 16 L 10.870 1.905 A 15 15 0 0 1 12.118 1.511 Z" fill="#3500ff" />
    <path d="M 16 16 L 12.118 1.511 A 15 15 0 0 1 13.395 1.228 Z" fill="#4a00ff" />
    <path d="M 16 16 L 13.395 1.228 A 15 15 0 0 1 14.693 1.057 Z" fill="#6000ff" />
    <path d="M 16 16 L 14.693 1.057 A 15 15 0 0 1 16.000 1.000 Z" fill="#7500ff" />
    <path d="M 16 16 L 16.000 1.000 A 15 15 0 0 1 17.307 1.057 Z" fill="#8a00ff" />
    <path d="M 16 16 L 17.307 1.057 A 15 15 0 0 1 18.605 1.228 Z" fill="#9f00ff" />
    <path d="M 16 16 L 18.605 1.228 A 15 15 0 0 1 19.882 1.511 Z" fill="#b500ff" />
    <path d="M 16 16 L 19.882 1.511 A 15 15 0 0 1 21.130 1.905 Z" fill="#ca00ff" />
    <path d="M 16 16 L 21.130 1.905 A 15 15 0 0 1 22.339 2.405 Z" fill="#df00ff" />
    <path d="M 16 16 L 22.339 2.405 A 15 15 0 0 1 23.500 3.010 Z" fill="#f400ff" />
    <path d="M 16 16 L 23.500 3.010 A 15 15 0 0 1 24.604 3.713 Z" fill="#ff00f4" />
    <path d="M 16 16 L 24.604 3.713 A 15 15 0 0 1 25.642 4.509 Z" fill="#ff00df" />
    <path d="M 16 16 L 25.642 4.509 A 15 15 0 0 1 26.607 5.393 Z" fill="#ff00ca" />
    <path d="M 16 16 L 26.607 5.393 A 15 15 0 0 1 27.491 6.358 Z" fill="#ff00b5" />
    <path d="M 16 16 L 27.491 6.358 A 15 15 0 0 1 28.287 7.396 Z" fill="#ff009f" />
    <path d="M 16 16 L 28.287 7.396 A 15 15 0 0 1 28.990 8.500 Z" fill="#ff008a" />
    <path d="M 16 16 L 28.990 8.500 A 15 15 0 0 1 29.595 9.661 Z" fill="#ff0075" />
    <path d="M 16 16 L 29.595 9.661 A 15 15 0 0 1 30.095 10.870 Z" fill="#ff0060" />
    <path d="M 16 16 L 30.095 10.870 A 15 15 0 0 1 30.489 12.118 Z" fill="#ff004a" />
    <path d="M 16 16 L 30.489 12.118 A 15 15 0 0 1 30.772 13.395 Z" fill="#ff0035" />
    <path d="M 16 16 L 30.772 13.395 A 15 15 0 0 1 30.943 14.693 Z" fill="#ff0020" />
    <path d="M 16 16 L 30.943 14.693 A 15 15 0 0 1 31.000 16.000 Z" fill="#ff000b" />
    </g>
    <circle cx="16" cy="16" r="15" fill="url(#center-fade)" />
  </g>
</svg>
