<svg xmlns="http://www.w3.org/2000/svg" viewBox="0 0 32 32">
  <defs>
    <radialGradient id="center-fade" cx="50%" cy="50%" r="50%">
      <stop offset="0%" stop-color="#ffffff" />
      <stop offset="32%" stop-color="#ffffff" stop-opacity="0.92" />
      <stop offset="58%" stop-color="#ffffff" stop-opacity="0.35" />
      <stop offset="100%" stop-color="#ffffff" stop-opacity="0" />
    </radialGradient>
  </defs>
  <g stroke="none">
    <path stroke="none" d="M 16 16 L 32.0000 16.0000 A 16 16 0 0 1 31.9781 16.8374 Z" fill="#ff0600" />
    <path stroke="none" d="M 16 16 L 31.9781 16.8374 A 16 16 0 0 1 31.9124 17.6725 Z" fill="#ff1300" />
    <path stroke="none" d="M 16 16 L 31.9124 17.6725 A 16 16 0 0 1 31.8030 18.5030 Z" fill="#ff2000" />
    <path stroke="none" d="M 16 16 L 31.8030 18.5030 A 16 16 0 0 1 31.6504 19.3266 Z" fill="#ff2d00" />
    <path stroke="none" d="M 16 16 L 31.6504 19.3266 A 16 16 0 0 1 31.4548 20.1411 Z" fill="#ff3900" />
    <path stroke="none" d="M 16 16 L 31.4548 20.1411 A 16 16 0 0 1 31.2169 20.9443 Z" fill="#ff4600" />
    <path stroke="none" d="M 16 16 L 31.2169 20.9443 A 16 16 0 0 1 30.9373 21.7339 Z" fill="#ff5300" />
    <path stroke="none" d="M 16 16 L 30.9373 21.7339 A 16 16 0 0 1 30.6167 22.5078 Z" fill="#ff6000" />
    <path stroke="none" d="M 16 16 L 30.6167 22.5078 A 16 16 0 0 1 30.2561 23.2638 Z" fill="#ff6c00" />
    <path stroke="none" d="M 16 16 L 30.2561 23.2638 A 16 16 0 0 1 29.8564 24.0000 Z" fill="#ff7900" />
    <path stroke="none" d="M 16 16 L 29.8564 24.0000 A 16 16 0 0 1 29.4187 24.7142 Z" fill="#ff8600" />
    <path stroke="none" d="M 16 16 L 29.4187 24.7142 A 16 16 0 0 1 28.9443 25.4046 Z" fill="#ff9300" />
    <path stroke="none" d="M 16 16 L 28.9443 25.4046 A 16 16 0 0 1 28.4343 26.0691 Z" fill="#ff9f00" />
    <path stroke="none" d="M 16 16 L 28.4343 26.0691 A 16 16 0 0 1 27.8903 26.7061 Z" fill="#ffac00" />
    <path stroke="none" d="M 16 16 L 27.8903 26.7061 A 16 16 0 0 1 27.3137 27.3137 Z" fill="#ffb900" />
    <path stroke="none" d="M 16 16 L 27.3137 27.3137 A 16 16 0 0 1 26.7061 27.8903 Z" fill="#ffc600" />
    <path stroke="none" d="M 16 16 L 26.7061 27.8903 A 16 16 0 0 1 26.0691 28.4343 Z" fill="#ffd200" />
    <path stroke="none" d="M 16 16 L 26.0691 28.4343 A 16 16 0 0 1 25.4046 28.9443 Z" fill="#ffdf00" />
    <path stroke="none" d="M 16 16 L 25.4046 28.9443 A 16 16 0 0 1 24.7142 29.4187 Z" fill="#ffec00" />
    <path stroke="none" d="M 16 16 L 24.7142 29.4187 A 16 16 0 0 1 24.0000 29.8564 Z" fill="#fff900" />
    <path stroke="none" d="M 16 16 L 24.0000 29.8564 A 16 16 0 0 1 23.2638 30.2561 Z" fill="#f9ff00" />
    <path stroke="none" d="M 16 16 L 23.2638 30.2561 A 16 16 0 0 1 22.5078 30.6167 Z" fill="#ecff00" />
    <path stroke="none" d="M 16 16 L 22.5078 30.6167 A 16 16 0 0 1 21.7339 30.9373 Z" fill="#dfff00" />
    <path stroke="none" d="M 16 16 L 21.7339 30.9373 A 16 16 0 0 1 20.9443 31.2169 Z" fill="#d2ff00" />
    <path stroke="none" d="M 16 16 L 20.9443 31.2169 A 16 16 0 0 1 20.1411 31.4548 Z" fill="#c6ff00" />
    <path stroke="none" d="M 16 16 L 20.1411 31.4548 A 16 16 0 0 1 19.3266 31.6504 Z" fill="#b9ff00" />
    <path stroke="none" d="M 16 16 L 19.3266 31.6504 A 16 16 0 0 1 18.5030 31.8030 Z" fill="#acff00" />
    <path stroke="none" d="M 16 16 L 18.5030 31.8030 A 16 16 0 0 1 17.6725 31.9124 Z" fill="#9fff00" />
    <path stroke="none" d="M 16 16 L 17.6725 31.9124 A 16 16 0 0 1 16.8374 31.9781 Z" fill="#93ff00" />
    <path stroke="none" d="M 16 16 L 16.8374 31.9781 A 16 16 0 0 1 16.0000 32.0000 Z" fill="#86ff00" />
    <path stroke="none" d="M 16 16 L 16.0000 32.0000 A 16 16 0 0 1 15.1626 31.9781 Z" fill="#79ff00" />
    <path stroke="none" d="M 16 16 L 15.1626 31.9781 A 16 16 0 0 1 14.3275 31.9124 Z" fill="#6cff00" />
    <path stroke="none" d="M 16 16 L 14.3275 31.9124 A 16 16 0 0 1 13.4970 31.8030 Z" fill="#60ff00" />
    <path stroke="none" d="M 16 16 L 13.4970 31.8030 A 16 16 0 0 1 12.6734 31.6504 Z" fill="#53ff00" />
    <path stroke="none" d="M 16 16 L 12.6734 31.6504 A 16 16 0 0 1 11.8589 31.4548 Z" fill="#46ff00" />
    <path stroke="none" d="M 16 16 L 11.8589 31.4548 A 16 16 0 0 1 11.0557 31.2169 Z" fill="#39ff00" />
    <path stroke="none" d="M 16 16 L 11.0557 31.2169 A 16 16 0 0 1 10.2661 30.9373 Z" fill="#2dff00" />
    <path stroke="none" d="M 16 16 L 10.2661 30.9373 A 16 16 0 0 1 9.4922 30.6167 Z" fill="#20ff00" />
    <path stroke="none" d="M 16 16 L 9.4922 30.6167 A 16 16 0 0 1 8.7362 30.2561 Z" fill="#13ff00" />
    <path stroke="none" d="M 16 16 L 8.7362 30.2561 A 16 16 0 0 1 8.0000 29.8564 Z" fill="#06ff00" />
    <path stroke="none" d="M 16 16 L 8.0000 29.8564 A 16 16 0 0 1 7.2858 29.4187 Z" fill="#00ff06" />
    <path stroke="none" d="M 16 16 L 7.2858 29.4187 A 16 16 0 0 1 6.5954 28.9443 Z" fill="#00ff13" />
    <path stroke="none" d="M 16 16 L 6.5954 28.9443 A 16 16 0 0 1 5.9309 28.4343 Z" fill="#00ff20" />
    <path stroke="none" d="M 16 16 L 5.9309 28.4343 A 16 16 0 0 1 5.2939 27.8903 Z" fill="#00ff2d" />
    <path stroke="none" d="M 16 16 L 5.2939 27.8903 A 16 16 0 0 1 4.6863 27.3137 Z" fill="#00ff39" />
    <path stroke="none" d="M 16 16 L 4.6863 27.3137 A 16 16 0 0 1 4.1097 26.7061 Z" fill="#00ff46" />
    <path stroke="none" d="M 16 16 L 4.1097 26.7061 A 16 16 0 0 1 3.5657 26.0691 Z" fill="#00ff53" />
    <path stroke="none" d="M 16 16 L 3.5657 26.0691 A 16 16 0 0 1 3.0557 25.4046 Z" fill="#00ff60" />
    <path stroke="none" d="M 16 16 L 3.0557 25.4046 A 16 16 0 0 1 2.5813 24.7142 Z" fill="#00ff6c" />
    <path stroke="none" d="M 16 16 L 2.5813 24.7142 A 16 16 0 0 1 2.1436 24.0000 Z" fill="#00ff79" />
    <path stroke="none" d="M 16 16 L 2.1436 24.0000 A 16 16 0 0 1 1.7439 23.2638 Z" fill="#00ff86" />
    <path stroke="none" d="M 16 16 L 1.7439 23.2638 A 16 16 0 0 1 1.3833 22.5078 Z" fill="#00ff93" />
    <path stroke="none" d="M 16 16 L 1.3833 22.5078 A 16 16 0 0 1 1.0627 21.7339 Z" fill="#00ff9f" />
    <path stroke="none" d="M 16 16 L 1.0627 21.7339 A 16 16 0 0 1 0.7831 20.9443 Z" fill="#00ffac" />
    <path stroke="none" d="M 16 16 L 0.7831 20.9443 A 16 16 0 0 1 0.5452 20.1411 Z" fill="#00ffb9" />
    <path stroke="none" d="M 16 16 L 0.5452 20.1411 A 16 16 0 0 1 0.3496 19.3266 Z" fill="#00ffc6" />
    <path stroke="none" d="M 16 16 L 0.3496 19.3266 A 16 16 0 0 1 0.1970 18.5030 Z" fill="#00ffd2" />
    <path stroke="none" d="M 16 16 L 0.1970 18.5030 A 16 16 0 0 1 0.0876 17.6725 Z" fill="#00ffdf" />
    <path stroke="none" d="M 16 16 L 0.0876 17.6725 A 16 16 0 0 1 0.0219 16.8374 Z" fill="#00ffec" />
    <path stroke="none" d="M 16 16 L 0.0219 16.8374 A 16 16 0 0 1 0.0000 16.0000 Z" fill="#00fff9" />
    <path stroke="none" d="M 16 16 L 0.0000 16.0000 A 16 16 0 0 1 0.0219 15.1626 Z" fill="#00f9ff" />
    <path stroke="none" d="M 16 16 L 0.0219 15.1626 A 16 16 0 0 1 0.0876 14.3275 Z" fill="#00ecff" />
    <path stroke="none" d="M 16 16 L 0.0876 14.3275 A 16 16 0 0 1 0.1970 13.4970 Z" fill="#00dfff" />
    <path stroke="none" d="M 16 16 L 0.1970 13.4970 A 16 16 0 0 1 0.3496 12.6734 Z" fill="#00d2ff" />
    <path stroke="none" d="M 16 16 L 0.3496 12.6734 A 16 16 0 0 1 0.5452 11.8589 Z" fill="#00c6ff" />
    <path stroke="none" d="M 16 16 L 0.5452 11.8589 A 16 16 0 0 1 0.7831 11.0557 Z" fill="#00b9ff" />
    <path stroke="none" d="M 16 16 L 0.7831 11.0557 A 16 16 0 0 1 1.0627 10.2661 Z" fill="#00acff" />
    <path stroke="none" d="M 16 16 L 1.0627 10.2661 A 16 16 0 0 1 1.3833 9.4922 Z" fill="#009fff" />
    <path stroke="none" d="M 16 16 L 1.3833 9.4922 A 16 16 0 0 1 1.7439 8.7362 Z" fill="#0093ff" />
    <path stroke="none" d="M 16 16 L 1.7439 8.7362 A 16 16 0 0 1 2.1436 8.0000 Z" fill="#0086ff" />
    <path stroke="none" d="M 16 16 L 2.1436 8.0000 A 16 16 0 0 1 2.5813 7.2858 Z" fill="#0079ff" />
    <path stroke="none" d="M 16 16 L 2.5813 7.2858 A 16 16 0 0 1 3.0557 6.5954 Z" fill="#006cff" />
    <path stroke="none" d="M 16 16 L 3.0557 6.5954 A 16 16 0 0 1 3.5657 5.9309 Z" fill="#0060ff" />
    <path stroke="none" d="M 16 16 L 3.5657 5.9309 A 16 16 0 0 1 4.1097 5.2939 Z" fill="#0053ff" />
    <path stroke="none" d="M 16 16 L 4.1097 5.2939 A 16 16 0 0 1 4.6863 4.6863 Z" fill="#0046ff" />
    <path stroke="none" d="M 16 16 L 4.6863 4.6863 A 16 16 0 0 1 5.2939 4.1097 Z" fill="#0039ff" />
    <path stroke="none" d="M 16 16 L 5.2939 4.1097 A 16 16 0 0 1 5.9309 3.5657 Z" fill="#002dff" />
    <path stroke="none" d="M 16 16 L 5.9309 3.5657 A 16 16 0 0 1 6.5954 3.0557 Z" fill="#0020ff" />
    <path stroke="none" d="M 16 16 L 6.5954 3.0557 A 16 16 0 0 1 7.2858 2.5813 Z" fill="#0013ff" />
    <path stroke="none" d="M 16 16 L 7.2858 2.5813 A 16 16 0 0 1 8.0000 2.1436 Z" fill="#0006ff" />
    <path stroke="none" d="M 16 16 L 8.0000 2.1436 A 16 16 0 0 1 8.7362 1.7439 Z" fill="#0600ff" />
    <path stroke="none" d="M 16 16 L 8.7362 1.7439 A 16 16 0 0 1 9.4922 1.3833 Z" fill="#1300ff" />
    <path stroke="none" d="M 16 16 L 9.4922 1.3833 A 16 16 0 0 1 10.2661 1.0627 Z" fill="#2000ff" />
    <path stroke="none" d="M 16 16 L 10.2661 1.0627 A 16 16 0 0 1 11.0557 0.7831 Z" fill="#2d00ff" />
    <path stroke="none" d="M 16 16 L 11.0557 0.7831 A 16 16 0 0 1 11.8589 0.5452 Z" fill="#3900ff" />
    <path stroke="none" d="M 16 16 L 11.8589 0.5452 A 16 16 0 0 1 12.6734 0.3496 Z" fill="#4600ff" />
    <path stroke="none" d="M 16 16 L 12.6734 0.3496 A 16 16 0 0 1 13.4970 0.1970 Z" fill="#5300ff" />
    <path stroke="none" d="M 16 16 L 13.4970 0.1970 A 16 16 0 0 1 14.3275 0.0876 Z" fill="#6000ff" />
    <path stroke="none" d="M 16 16 L 14.3275 0.0876 A 16 16 0 0 1 15.1626 0.0219 Z" fill="#6c00ff" />
    <path stroke="none" d="M 16 16 L 15.1626 0.0219 A 16 16 0 0 1 16.0000 0.0000 Z" fill="#7900ff" />
    <path stroke="none" d="M 16 16 L 16.0000 0.0000 A 16 16 0 0 1 16.8374 0.0219 Z" fill="#8600ff" />
    <path stroke="none" d="M 16 16 L 16.8374 0.0219 A 16 16 0 0 1 17.6725 0.0876 Z" fill="#9300ff" />
    <path stroke="none" d="M 16 16 L 17.6725 0.0876 A 16 16 0 0 1 18.5030 0.1970 Z" fill="#9f00ff" />
    <path stroke="none" d="M 16 16 L 18.5030 0.1970 A 16 16 0 0 1 19.3266 0.3496 Z" fill="#ac00ff" />
    <path stroke="none" d="M 16 16 L 19.3266 0.3496 A 16 16 0 0 1 20.1411 0.5452 Z" fill="#b900ff" />
    <path stroke="none" d="M 16 16 L 20.1411 0.5452 A 16 16 0 0 1 20.9443 0.7831 Z" fill="#c600ff" />
    <path stroke="none" d="M 16 16 L 20.9443 0.7831 A 16 16 0 0 1 21.7339 1.0627 Z" fill="#d200ff" />
    <path stroke="none" d="M 16 16 L 21.7339 1.0627 A 16 16 0 0 1 22.5078 1.3833 Z" fill="#df00ff" />
    <path stroke="none" d="M 16 16 L 22.5078 1.3833 A 16 16 0 0 1 23.2638 1.7439 Z" fill="#ec00ff" />
    <path stroke="none" d="M 16 16 L 23.2638 1.7439 A 16 16 0 0 1 24.0000 2.1436 Z" fill="#f900ff" />
    <path stroke="none" d="M 16 16 L 24.0000 2.1436 A 16 16 0 0 1 24.7142 2.5813 Z" fill="#ff00f9" />
    <path stroke="none" d="M 16 16 L 24.7142 2.5813 A 16 16 0 0 1 25.4046 3.0557 Z" fill="#ff00ec" />
    <path stroke="none" d="M 16 16 L 25.4046 3.0557 A 16 16 0 0 1 26.0691 3.5657 Z" fill="#ff00df" />
    <path stroke="none" d="M 16 16 L 26.0691 3.5657 A 16 16 0 0 1 26.7061 4.1097 Z" fill="#ff00d2" />
    <path stroke="none" d="M 16 16 L 26.7061 4.1097 A 16 16 0 0 1 27.3137 4.6863 Z" fill="#ff00c6" />
    <path stroke="none" d="M 16 16 L 27.3137 4.6863 A 16 16 0 0 1 27.8903 5.2939 Z" fill="#ff00b9" />
    <path stroke="none" d="M 16 16 L 27.8903 5.2939 A 16 16 0 0 1 28.4343 5.9309 Z" fill="#ff00ac" />
    <path stroke="none" d="M 16 16 L 28.4343 5.9309 A 16 16 0 0 1 28.9443 6.5954 Z" fill="#ff009f" />
    <path stroke="none" d="M 16 16 L 28.9443 6.5954 A 16 16 0 0 1 29.4187 7.2858 Z" fill="#ff0093" />
    <path stroke="none" d="M 16 16 L 29.4187 7.2858 A 16 16 0 0 1 29.8564 8.0000 Z" fill="#ff0086" />
    <path stroke="none" d="M 16 16 L 29.8564 8.0000 A 16 16 0 0 1 30.2561 8.7362 Z" fill="#ff0079" />
    <path stroke="none" d="M 16 16 L 30.2561 8.7362 A 16 16 0 0 1 30.6167 9.4922 Z" fill="#ff006c" />
    <path stroke="none" d="M 16 16 L 30.6167 9.4922 A 16 16 0 0 1 30.9373 10.2661 Z" fill="#ff0060" />
    <path stroke="none" d="M 16 16 L 30.9373 10.2661 A 16 16 0 0 1 31.2169 11.0557 Z" fill="#ff0053" />
    <path stroke="none" d="M 16 16 L 31.2169 11.0557 A 16 16 0 0 1 31.4548 11.8589 Z" fill="#ff0046" />
    <path stroke="none" d="M 16 16 L 31.4548 11.8589 A 16 16 0 0 1 31.6504 12.6734 Z" fill="#ff0039" />
    <path stroke="none" d="M 16 16 L 31.6504 12.6734 A 16 16 0 0 1 31.8030 13.4970 Z" fill="#ff002d" />
    <path stroke="none" d="M 16 16 L 31.8030 13.4970 A 16 16 0 0 1 31.9124 14.3275 Z" fill="#ff0020" />
    <path stroke="none" d="M 16 16 L 31.9124 14.3275 A 16 16 0 0 1 31.9781 15.1626 Z" fill="#ff0013" />
    <path stroke="none" d="M 16 16 L 31.9781 15.1626 A 16 16 0 0 1 32.0000 16.0000 Z" fill="#ff0006" />
    <circle cx="16" cy="16" r="16" fill="url(#center-fade)" stroke="none" />
  </g>
</svg>
