<svg xmlns="http://www.w3.org/2000/svg" viewBox="0 0 32 32">
  <g stroke="none">
    <path d="M 16 16 L 16.000 0.000 A 16 16 0 0 1 21.472 0.965 Z" fill="#ff2a00"/>
    <path d="M 16 16 L 21.472 0.965 A 16 16 0 0 1 26.285 3.743 Z" fill="#ff8000"/>
    <path d="M 16 16 L 26.285 3.743 A 16 16 0 0 1 29.856 8.000 Z" fill="#ffd500"/>
    <path d="M 16 16 L 29.856 8.000 A 16 16 0 0 1 31.757 13.222 Z" fill="#d4ff00"/>
    <path d="M 16 16 L 31.757 13.222 A 16 16 0 0 1 31.757 18.778 Z" fill="#80ff00"/>
    <path d="M 16 16 L 31.757 18.778 A 16 16 0 0 1 29.856 24.000 Z" fill="#2aff00"/>
    <path d="M 16 16 L 29.856 24.000 A 16 16 0 0 1 26.285 28.257 Z" fill="#00ff2a"/>
    <path d="M 16 16 L 26.285 28.257 A 16 16 0 0 1 21.472 31.035 Z" fill="#00ff80"/>
    <path d="M 16 16 L 21.472 31.035 A 16 16 0 0 1 16.000 32.000 Z" fill="#00ffd5"/>
    <path d="M 16 16 L 16.000 32.000 A 16 16 0 0 1 10.528 31.035 Z" fill="#00d5ff"/>
    <path d="M 16 16 L 10.528 31.035 A 16 16 0 0 1 5.715 28.257 Z" fill="#0080ff"/>
    <path d="M 16 16 L 5.715 28.257 A 16 16 0 0 1 2.144 24.000 Z" fill="#002bff"/>
    <path d="M 16 16 L 2.144 24.000 A 16 16 0 0 1 0.243 18.778 Z" fill="#2b00ff"/>
    <path d="M 16 16 L 0.243 18.778 A 16 16 0 0 1 0.243 13.222 Z" fill="#8000ff"/>
    <path d="M 16 16 L 0.243 13.222 A 16 16 0 0 1 2.144 8.000 Z" fill="#d400ff"/>
    <path d="M 16 16 L 2.144 8.000 A 16 16 0 0 1 5.715 3.743 Z" fill="#ff00d4"/>
    <path d="M 16 16 L 5.715 3.743 A 16 16 0 0 1 10.528 0.965 Z" fill="#ff0080"/>
    <path d="M 16 16 L 10.528 0.965 A 16 16 0 0 1 16.000 0.000 Z" fill="#ff002b"/>
  </g>
</svg>
